<svg id="thumb_down_alt-24px_1_" data-name="thumb_down_alt-24px (1)" xmlns="http://www.w3.org/2000/svg" width="14" height="14" viewBox="0 0 24 24">
  <path id="Path_7" data-name="Path 7" d="M24,24H0V0H24Z" fill="none"/>
  <path id="Path_8" data-name="Path 8" d="M22,4H20a1,1,0,0,0-1,1v9a1,1,0,0,0,1,1h2ZM2.17,11.12a1.98,1.98,0,0,0-.17.8V13a2.006,2.006,0,0,0,2,2H9.5l-.92,4.65a1,1,0,0,0,.08.66,4.8,4.8,0,0,0,.88,1.22L10,22l6.41-6.41A2.006,2.006,0,0,0,17,14.17V6.34A2.343,2.343,0,0,0,14.66,4H6.56a2,2,0,0,0-1.72.97L2.17,11.12Z" fill="#fff"/>
</svg>
